PathFileType	4	(X/Y/Z)	4_coords_data.trc
DataRate	CameraRate	NumFrames	NumMarkers	Units	OrigDataRate	OrigDataStartFrame	OrigNumFrames
30.0	30.0	7	21	m	30.0	36	47
Frame#	Time	THUMB_TIP	THUMB_IP	THUMB_MCP	THUMB_CMC	INDEX_TIP	INDEX_DIP	INDEX_PIP	INDEX_MCP	MIDDLE_TIP	MIDDLE_DIP	MIDDLE_PIP	MIDDLE_MCP	RING_TIP	RING_DIP	RING_PIP	RING_MCP	PINKY_TIP	PINKY_DIP	PINKY_PIP	PINKY_MCP	WRIST
X1	Y1	Z1	X2	Y2	Z2	X3	Y3	Z3	X4	Y4	Z4	X5	Y5	Z5	X6	Y6	Z6	X7	Y7	Z7	X8	Y8	Z8	X9	Y9	Z9	X10	Y10	Z10	X11	Y11	Z11	X12	Y12	Z12	X13	Y13	Z13	X14	Y14	Z14	X15	Y15	Z15	X16	Y16	Z16	X17	Y17	Z17	X18	Y18	Z18	X19	Y19	Z19	X20	Y20	Z20	X21	Y21	Z21
35	1.1666666666666667	0.0063926601409912106	-0.11786199951171875	1.145239990234375	-0.009540840148925782	-0.09524590301513672	1.139219970703125	-0.04059270095825195	-0.08303759765625	1.1383199462890625	-0.055577800750732424	-0.050914199829101565	1.1336400146484376	0.05494969940185547	-0.11731700134277344	1.0683599853515624	0.03350680160522461	-0.108552001953125	1.071800048828125	0.010319299697875976	-0.09892060089111328	1.076300048828125	-0.026822500228881836	-0.0813998031616211	1.083239990234375	0.07602999877929688	-0.08597920227050782	1.075469970703125	0.054187599182128905	-0.07808300018310547	1.067949951171875	0.0242593994140625	-0.06928450012207031	1.062260009765625	-0.01695680046081543	-0.057750900268554686	1.0751600341796874	0.08264109802246093	-0.05184280014038086	1.0726800537109376	0.06020130157470703	-0.04508980178833008	1.067489990234375	0.030712900161743165	-0.039166900634765626	1.064280029296875	-0.010300600051879882	-0.03530490112304688	1.0804200439453124	0.07014099884033204	-0.010642200469970704	1.081510009765625	0.050018798828125	-0.009176440238952636	1.081530029296875	0.028263799667358397	-0.009189990043640137	1.0820400390625	-0.004709219932556153	-0.014223299980163574	1.0896700439453124	-0.08186399841308593	-0.016630199432373045	1.1303800048828125
36	1.2	0.005881460189819336	-0.1205260009765625	1.1400799560546875	-0.01056149959564209	-0.09740419769287109	1.1371400146484374	-0.041277599334716794	-0.08459529876708985	1.13743994140625	-0.056018798828125	-0.0515984992980957	1.1345	0.052268798828125	-0.11560800170898437	1.0636400146484375	0.03092210006713867	-0.10698100280761719	1.0678399658203126	0.007824389934539796	-0.0974552001953125	1.07318994140625	-0.028959299087524416	-0.08003569793701172	1.0821300048828124	0.0745291976928711	-0.08416960144042969	1.0648199462890624	0.051456298828125	-0.07615869903564453	1.06093994140625	0.020829700469970704	-0.06723639678955078	1.05952001953125	-0.019454299926757814	-0.05598600006103516	1.075030029296875	0.08080870056152344	-0.04949250030517578	1.06425	0.05773939895629883	-0.043038898468017575	1.06225	0.027903200149536133	-0.03730929946899414	1.062550048828125	-0.011935799598693848	-0.03386640167236328	1.0809100341796876	0.06842410278320313	-0.009463569641113282	1.079199951171875	0.04821920013427734	-0.008098950386047363	1.0803499755859376	0.0264507999420166	-0.008171979904174804	1.0816500244140625	-0.006231490135192871	-0.013392900466918945	1.090719970703125	-0.082681396484375	-0.01707699966430664	1.13368994140625
37	1.2333333333333334	0.00420881986618042	-0.12150900268554687	1.1343699951171875	-0.012806500434875488	-0.0985687026977539	1.133050048828125	-0.04324610137939453	-0.08539900207519531	1.135050048828125	-0.057418899536132814	-0.051487098693847655	1.1350699462890625	0.048877201080322265	-0.11209200286865234	1.059010009765625	0.027519699096679687	-0.103677001953125	1.0635	0.004392459869384766	-0.0944375	1.0694100341796875	-0.032339801788330076	-0.07730590057373046	1.0801700439453126	0.07090059661865235	-0.08138520050048828	1.05618994140625	0.0474193000793457	-0.07319329833984375	1.0548699951171876	0.016727500915527344	-0.06428980255126954	1.055969970703125	-0.02246940040588379	-0.053181598663330075	1.0733299560546874	0.07733519744873046	-0.04667449951171875	1.056800048828125	0.054059600830078124	-0.04029970169067383	1.0574100341796875	0.02429319953918457	-0.03470180130004883	1.05997998046875	-0.014543499946594238	-0.031511199951171874	1.079719970703125	0.06574870300292969	-0.00784503984451294	1.075469970703125	0.045495399475097655	-0.006286079883575439	1.0774599609375	0.023862499237060547	-0.0062222199440002445	1.0798800048828125	-0.008284440040588379	-0.01145829963684082	1.08993994140625	-0.08372599792480469	-0.0161875	1.1363699951171875
38	1.2666666666666666	0.0025033700466156003	-0.12121099853515625	1.12852001953125	-0.014833200454711913	-0.09857550048828125	1.1288299560546875	-0.04508160018920898	-0.08511440277099609	1.1327099609375	-0.05871419906616211	-0.05058459854125977	1.135030029296875	0.04557339859008789	-0.10767400360107422	1.05527001953125	0.024130800247192382	-0.0995895004272461	1.060010009765625	0.000775587022304534	-0.09056610107421875	1.066280029296875	-0.03581460189819336	-0.07387169647216797	1.07822998046875	0.06646790313720703	-0.07735230255126953	1.047510009765625	0.042695201873779294	-0.06934439849853516	1.0486199951171875	0.012237600326538086	-0.06047309875488281	1.05252001953125	-0.02616390037536621	-0.0497776985168457	1.0718199462890625	0.07269159698486329	-0.04241899871826172	1.048280029296875	0.04942850112915039	-0.036404300689697265	1.0515	0.020043800354003907	-0.031181299209594726	1.056699951171875	-0.017635400772094727	-0.02832550048828125	1.0783599853515624	0.06211209869384766	-0.0048414402008056644	1.07075	0.04203200149536133	-0.003301470041275024	1.0737900390625	0.020579999923706054	-0.00325406002998352	1.077449951171875	-0.011019900321960449	-0.008574350357055664	1.089469970703125	-0.0846843032836914	-0.015197500228881836	1.1378900146484374
39	1.3	0.001347970008850097	-0.1197760009765625	1.1224599609375	-0.016345600128173828	-0.09765560150146485	1.1248199462890625	-0.04600170135498047	-0.08425599670410157	1.1308900146484375	-0.059131599426269534	-0.04940999984741211	1.13475	0.041881900787353515	-0.10237200164794921	1.048739990234375	0.02054840087890625	-0.09468789672851563	1.0546800537109375	-0.002654469966888427	-0.08618679809570312	1.062260009765625	-0.0387422981262207	-0.0705302963256836	1.0766600341796875	0.061550399780273435	-0.0713550033569336	1.0386199951171875	0.03770890045166016	-0.06399549865722656	1.0422099609375	0.007498360157012939	-0.055748600006103516	1.0489000244140625	-0.029674200057983397	-0.046061599731445316	1.070260009765625	0.06746109771728516	-0.03637080001831055	1.040280029296875	0.044256401062011716	-0.03110510063171387	1.04568994140625	0.015260600090026855	-0.026590999603271485	1.0534000244140624	-0.020876100540161133	-0.02473979949951172	1.076989990234375	0.05774420166015625	-3.2142300158739e-05	1.065199951171875	0.037772598266601565	0.0011603100299835201	1.0695400390625	0.016598800659179687	0.0007627040147781371	1.0744300537109375	-0.01389579963684082	-0.0053316597938537595	1.088	-0.08572730255126954	-0.014112700462341308	1.141030029296875
40	1.3333333333333333	0.0005953149795532221	-0.1177509994506836	1.118219970703125	-0.01695039939880371	-0.09597059631347657	1.122199951171875	-0.04674420166015625	-0.08277839660644531	1.1296500244140626	-0.059660301208496094	-0.0480260009765625	1.13472998046875	0.03852080154418945	-0.09722350311279297	1.0429599609375	0.017332799911499025	-0.09010350036621094	1.0502099609375	-0.00564093017578125	-0.08210079956054687	1.0591300048828125	-0.04118759918212891	-0.06733989715576172	1.075739990234375	0.05715570068359375	-0.06546320343017578	1.03177001953125	0.03337839889526367	-0.058792999267578125	1.0372900390625	0.003363859891891479	-0.051328601837158205	1.0461400146484374	-0.03287480163574219	-0.04262979888916016	1.0695799560546875	0.06227050018310547	-0.030265600204467773	1.0334300537109375	0.03929959869384766	-0.025804800033569338	1.0409100341796875	0.010790800094604492	-0.022211299896240235	1.0506099853515625	-0.02409339904785156	-0.021316699981689453	1.075949951171875	0.053157901763916014	0.005269929885864257	1.0605400390625	0.03331290054321289	0.005885900020599365	1.0658499755859374	0.012506999969482423	0.004905210018157959	1.07197998046875	-0.016974599838256835	-0.002020920038223266	1.0871099853515624	-0.0866144027709961	-0.01329319953918457	1.142489990234375
41	1.3666666666666667	0.00032270699739456106	-0.11549400329589844	1.1146099853515625	-0.017494300842285156	-0.09405390167236329	1.11968994140625	-0.04698749923706055	-0.08127369689941406	1.1283199462890625	-0.06029140090942383	-0.046845298767089844	1.134550048828125	0.0360807991027832	-0.09226470184326171	1.0386300048828125	0.014879500389099121	-0.08574240112304687	1.04677001953125	-0.008063460350036621	-0.07834249877929687	1.0566400146484376	-0.043234298706054684	-0.06462429809570312	1.0746099853515625	0.05327190017700195	-0.05930609893798828	1.0254000244140624	0.02962409973144531	-0.0535702018737793	1.0331600341796876	5.0344299525022004e-05	-0.04713320159912109	1.0440799560546874	-0.035288101196289064	-0.03983319854736328	1.068530029296875	0.05760240173339844	-0.024041999816894533	1.0279000244140626	0.03506930160522461	-0.020703399658203125	1.03731005859375	0.007126689910888672	-0.018124300003051756	1.04875	-0.026675600051879883	-0.01833300018310547	1.0750999755859374	0.049022499084472655	0.010287599563598633	1.0574000244140624	0.029341499328613282	0.010280500411987305	1.06356005859375	0.008830690383911132	0.008706060409545899	1.0702900390625	-0.019632200241088867	0.0009716420173645021	1.086449951171875	-0.08768779754638673	-0.012713800430297852	1.1426600341796875
